{
	"asset":{
		"generator":"Khronos glTF Blender I/O v4.5.47",
		"version":"2.0"
	},
	"scene":0,
	"scenes":[
		{
			"name":"Scene",
			"nodes":[
				0,
				1,
				2,
				3,
				4,
				5,
				6,
				7,
				8,
				9,
				10
			]
		}
	],
	"nodes":[
		{
			"mesh":0,
			"name":"arbol A tronco"
		},
		{
			"mesh":1,
			"name":"arbol A rama",
			"scale":[
				1.3000547885894775,
				1.3000547885894775,
				1.3000547885894775
			],
			"translation":[
				0.031992800533771515,
				5.783775329589844,
				0.043171364814043045
			]
		},
		{
			"mesh":1,
			"name":"arbol A rama.001",
			"rotation":[
				-0.21914756298065186,
				-0.8284600973129272,
				-0.1318001002073288,
				0.4982539117336273
			],
			"scale":[
				1.1919511556625366,
				1.1919511556625366,
				1.1919512748718262
			],
			"translation":[
				1.2081115245819092,
				3.0266387462615967,
				-0.477979451417923
			]
		},
		{
			"mesh":1,
			"name":"arbol A rama.002",
			"rotation":[
				0.020997704938054085,
				0.4463251233100891,
				0.18744733929634094,
				0.8747666478157043
			],
			"scale":[
				1.522057294845581,
				1.522057294845581,
				1.522057294845581
			],
			"translation":[
				0.020856039598584175,
				4.431168079376221,
				0.5768845677375793
			]
		},
		{
			"mesh":1,
			"name":"arbol A rama.003",
			"rotation":[
				-0.044141191989183426,
				0.9852117300033569,
				-0.13791799545288086,
				0.09158693999052048
			],
			"scale":[
				1.522057294845581,
				1.522057294845581,
				1.522057294845581
			],
			"translation":[
				1.2081115245819092,
				3.0266387462615967,
				-0.477979451417923
			]
		},
		{
			"mesh":1,
			"name":"arbol A rama.004",
			"rotation":[
				0.3545484244823456,
				0.07152338325977325,
				0.05742141976952553,
				0.9305281639099121
			],
			"scale":[
				1.161863923072815,
				1.1618640422821045,
				1.161863923072815
			],
			"translation":[
				-0.510089099407196,
				5.566736221313477,
				1.013466715812683
			]
		},
		{
			"mesh":1,
			"name":"arbol A rama.005",
			"rotation":[
				-0.3582671880722046,
				-0.5487253665924072,
				-0.016905535012483597,
				0.7551551461219788
			],
			"scale":[
				0.9250272512435913,
				0.9250272512435913,
				0.9250271916389465
			],
			"translation":[
				0.031992800533771515,
				5.783775329589844,
				0.043171364814043045
			]
		},
		{
			"mesh":1,
			"name":"arbol A rama.006",
			"rotation":[
				-0.006623222026973963,
				0.8618335723876953,
				-0.4968966245651245,
				0.1014532595872879
			],
			"scale":[
				1.522057294845581,
				1.5220571756362915,
				1.522057294845581
			],
			"translation":[
				1.2081115245819092,
				3.0266387462615967,
				-0.477979451417923
			]
		},
		{
			"mesh":1,
			"name":"arbol A rama.007",
			"rotation":[
				0.34944042563438416,
				0.4072363078594208,
				0.36751535534858704,
				0.7595936059951782
			],
			"scale":[
				1.021807312965393,
				1.0218069553375244,
				1.0218071937561035
			],
			"translation":[
				0.020856039598584175,
				4.431168079376221,
				0.5768845677375793
			]
		},
		{
			"mesh":1,
			"name":"arbol A rama.008",
			"rotation":[
				-0.13667812943458557,
				0.12487338483333588,
				0.498094767332077,
				0.8471288681030273
			],
			"scale":[
				1.5220571756362915,
				1.522057294845581,
				1.522057294845581
			],
			"translation":[
				0.020856039598584175,
				4.431168079376221,
				0.5768845677375793
			]
		},
		{
			"mesh":1,
			"name":"arbol A rama.009",
			"rotation":[
				-0.05541902035474777,
				0.17664369940757751,
				0.8563264012336731,
				0.48211100697517395
			],
			"scale":[
				1.3015143871307373,
				1.3015143871307373,
				1.3015145063400269
			],
			"translation":[
				0.020856039598584175,
				4.431168079376221,
				0.5768845677375793
			]
		}
	],
	"materials":[
		{
			"doubleSided":true,
			"name":"arbol A oro",
			"pbrMetallicRoughness":{
				"baseColorFactor":[
					0.800315260887146,
					0.41984450817108154,
					0,
					1
				],
				"roughnessFactor":0.1409091055393219
			}
		},
		{
			"doubleSided":true,
			"name":"arbol A madera",
			"pbrMetallicRoughness":{
				"baseColorFactor":[
					0.07785865664482117,
					0.020161807537078857,
					0,
					1
				],
				"metallicFactor":0,
				"roughnessFactor":0.20454546809196472
			}
		}
	],
	"meshes":[
		{
			"name":"Cube.002",
			"primitives":[
				{
					"attributes":{
						"POSITION":0,
						"NORMAL":1,
						"TEXCOORD_0":2
					},
					"indices":3,
					"material":0
				}
			]
		},
		{
			"name":"Cube.003",
			"primitives":[
				{
					"attributes":{
						"POSITION":4,
						"NORMAL":5,
						"TEXCOORD_0":6
					},
					"indices":7,
					"material":0
				},
				{
					"attributes":{
						"POSITION":8,
						"NORMAL":9,
						"TEXCOORD_0":10
					},
					"indices":11,
					"material":1
				}
			]
		}
	],
	"accessors":[
		{
			"bufferView":0,
			"componentType":5126,
			"count":180,
			"max":[
				1.4647672176361084,
				5.829764366149902,
				0.9358507394790649
			],
			"min":[
				-0.863743782043457,
				-0.03261251747608185,
				-0.9587788581848145
			],
			"type":"VEC3"
		},
		{
			"bufferView":1,
			"componentType":5126,
			"count":180,
			"type":"VEC3"
		},
		{
			"bufferView":2,
			"componentType":5126,
			"count":180,
			"type":"VEC2"
		},
		{
			"bufferView":3,
			"componentType":5123,
			"count":276,
			"type":"SCALAR"
		},
		{
			"bufferView":4,
			"componentType":5126,
			"count":70,
			"max":[
				0.14417672157287598,
				3.5187149047851562,
				0.08935403823852539
			],
			"min":[
				-0.1229865550994873,
				1.3572930097579956,
				-0.16648340225219727
			],
			"type":"VEC3"
		},
		{
			"bufferView":5,
			"componentType":5126,
			"count":70,
			"type":"VEC3"
		},
		{
			"bufferView":6,
			"componentType":5126,
			"count":70,
			"type":"VEC2"
		},
		{
			"bufferView":7,
			"componentType":5123,
			"count":168,
			"type":"SCALAR"
		},
		{
			"bufferView":8,
			"componentType":5126,
			"count":90,
			"max":[
				0.19241762161254883,
				2.5809245109558105,
				0.12282896041870117
			],
			"min":[
				-0.26254796981811523,
				-0.06582474708557129,
				-0.19995784759521484
			],
			"type":"VEC3"
		},
		{
			"bufferView":9,
			"componentType":5126,
			"count":90,
			"type":"VEC3"
		},
		{
			"bufferView":10,
			"componentType":5126,
			"count":90,
			"type":"VEC2"
		},
		{
			"bufferView":11,
			"componentType":5123,
			"count":180,
			"type":"SCALAR"
		}
	],
	"bufferViews":[
		{
			"buffer":0,
			"byteLength":2160,
			"byteOffset":0,
			"target":34962
		},
		{
			"buffer":0,
			"byteLength":2160,
			"byteOffset":2160,
			"target":34962
		},
		{
			"buffer":0,
			"byteLength":1440,
			"byteOffset":4320,
			"target":34962
		},
		{
			"buffer":0,
			"byteLength":552,
			"byteOffset":5760,
			"target":34963
		},
		{
			"buffer":0,
			"byteLength":840,
			"byteOffset":6312,
			"target":34962
		},
		{
			"buffer":0,
			"byteLength":840,
			"byteOffset":7152,
			"target":34962
		},
		{
			"buffer":0,
			"byteLength":560,
			"byteOffset":7992,
			"target":34962
		},
		{
			"buffer":0,
			"byteLength":336,
			"byteOffset":8552,
			"target":34963
		},
		{
			"buffer":0,
			"byteLength":1080,
			"byteOffset":8888,
			"target":34962
		},
		{
			"buffer":0,
			"byteLength":1080,
			"byteOffset":9968,
			"target":34962
		},
		{
			"buffer":0,
			"byteLength":720,
			"byteOffset":11048,
			"target":34962
		},
		{
			"buffer":0,
			"byteLength":360,
			"byteOffset":11768,
			"target":34963
		}
	],
	"buffers":[
		{
			"byteLength":12128,
			"uri":"arbol_A.bin"
		}
	]
}
