{
	"asset":{
		"generator":"Khronos glTF Blender I/O v4.5.47",
		"version":"2.0"
	},
	"scene":0,
	"scenes":[
		{
			"name":"Scene",
			"nodes":[
				0,
				1
			]
		}
	],
	"nodes":[
		{
			"mesh":0,
			"name":"mascara_alada"
		},
		{
			"mesh":1,
			"name":"mascara_alada_colision_top",
			"scale":[
				0.40706130862236023,
				1,
				0.5388849973678589
			],
			"translation":[
				0,
				0.6368452906608582,
				-0.09018832445144653
			]
		}
	],
	"materials":[
		{
			"doubleSided":true,
			"name":"Material",
			"pbrMetallicRoughness":{
				"baseColorFactor":[
					0.7920850515365601,
					0.42604130506515503,
					0.1217670738697052,
					1
				],
				"metallicFactor":0.25,
				"roughnessFactor":0.6181818246841431
			}
		}
	],
	"meshes":[
		{
			"name":"Cube.006",
			"primitives":[
				{
					"attributes":{
						"POSITION":0,
						"NORMAL":1,
						"TEXCOORD_0":2
					},
					"indices":3,
					"material":0
				}
			]
		},
		{
			"name":"Plane",
			"primitives":[
				{
					"attributes":{
						"POSITION":4,
						"NORMAL":5,
						"TEXCOORD_0":6
					},
					"indices":7
				}
			]
		}
	],
	"accessors":[
		{
			"bufferView":0,
			"componentType":5126,
			"count":7753,
			"max":[
				1.7010782957077026,
				1.081966757774353,
				0.6674174070358276
			],
			"min":[
				-1.7010799646377563,
				-1.1906311511993408,
				-2.7012827396392822
			],
			"type":"VEC3"
		},
		{
			"bufferView":1,
			"componentType":5126,
			"count":7753,
			"type":"VEC3"
		},
		{
			"bufferView":2,
			"componentType":5126,
			"count":7753,
			"type":"VEC2"
		},
		{
			"bufferView":3,
			"componentType":5123,
			"count":28314,
			"type":"SCALAR"
		},
		{
			"bufferView":4,
			"componentType":5126,
			"count":4,
			"max":[
				1,
				0,
				1
			],
			"min":[
				-1,
				0,
				-1
			],
			"type":"VEC3"
		},
		{
			"bufferView":5,
			"componentType":5126,
			"count":4,
			"type":"VEC3"
		},
		{
			"bufferView":6,
			"componentType":5126,
			"count":4,
			"type":"VEC2"
		},
		{
			"bufferView":7,
			"componentType":5123,
			"count":6,
			"type":"SCALAR"
		}
	],
	"bufferViews":[
		{
			"buffer":0,
			"byteLength":93036,
			"byteOffset":0,
			"target":34962
		},
		{
			"buffer":0,
			"byteLength":93036,
			"byteOffset":93036,
			"target":34962
		},
		{
			"buffer":0,
			"byteLength":62024,
			"byteOffset":186072,
			"target":34962
		},
		{
			"buffer":0,
			"byteLength":56628,
			"byteOffset":248096,
			"target":34963
		},
		{
			"buffer":0,
			"byteLength":48,
			"byteOffset":304724,
			"target":34962
		},
		{
			"buffer":0,
			"byteLength":48,
			"byteOffset":304772,
			"target":34962
		},
		{
			"buffer":0,
			"byteLength":32,
			"byteOffset":304820,
			"target":34962
		},
		{
			"buffer":0,
			"byteLength":12,
			"byteOffset":304852,
			"target":34963
		}
	],
	"buffers":[
		{
			"byteLength":304864,
			"uri":"mascara_alada.bin"
		}
	]
}
